<svg width="26" height="28" viewBox="0 0 26 28" fill="none" xmlns="http://www.w3.org/2000/svg">
    <path fill-rule="evenodd" clip-rule="evenodd"
        d="M17.3634 25.0526C17.3636 25.7962 17.0865 26.5124 16.5875 27.0576C16.0885 27.6029 15.4045 27.9369 14.6727 27.9926L14.4545 28H11.5457C10.8118 28.0002 10.105 27.7194 9.56688 27.2138C9.02877 26.7082 8.69915 26.0152 8.64411 25.2737L8.63684 25.0526H17.3634ZM13.0001 1.40599e-09C15.6399 -4.41295e-05 18.1764 1.03879 20.0748 2.89737C21.9731 4.75596 23.0848 7.28897 23.1753 9.96211L23.1811 10.3158V15.8627L25.831 21.2328C25.9467 21.4672 26.0046 21.7264 25.9997 21.9883C25.9949 22.2503 25.9274 22.5071 25.8032 22.7369C25.6789 22.9666 25.5016 23.1624 25.2863 23.3075C25.0711 23.4527 24.8243 23.5428 24.5671 23.5701L24.3999 23.5789H1.60034C1.34169 23.579 1.08688 23.5156 0.857741 23.394C0.628602 23.2724 0.43197 23.0964 0.284692 22.8809C0.137414 22.6655 0.0438836 22.4171 0.0121144 22.157C-0.0196547 21.8969 0.0112851 21.6329 0.102283 21.3876L0.169186 21.2328L2.81915 15.8627V10.3158C2.81915 7.57987 3.89178 4.95601 5.80108 3.02142C7.71038 1.08684 10.3 1.406e-09 13.0001 1.40599e-09ZM13.0001 2.94737C11.1261 2.94748 9.32455 3.68059 7.97104 4.99381C6.61753 6.30704 5.8166 8.099 5.73527 9.996L5.72799 10.3158V15.8627C5.72801 16.2282 5.66093 16.5905 5.53019 16.9312L5.42111 17.1817L3.71943 20.6316H22.2822L20.5806 17.1802C20.4191 16.8535 20.319 16.4992 20.2853 16.1354L20.2722 15.8627V10.3158C20.2722 8.36156 19.5061 6.48738 18.1423 5.10553C16.7785 3.72368 14.9288 2.94737 13.0001 2.94737Z"
        fill="#4D5960" />
</svg>
    