<svg xmlns:dc="http://purl.org/dc/elements/1.1/" xmlns:cc="http://creativecommons.org/ns#"
    xmlns:rdf="http://www.w3.org/1999/02/22-rdf-syntax-ns#" xmlns:svg="http://www.w3.org/2000/svg"
    xmlns="http://www.w3.org/2000/svg"
    xmlns:sodipodi="http://sodipodi.sourceforge.net/DTD/sodipodi-0.dtd"
    xmlns:inkscape="http://www.inkscape.org/namespaces/inkscape" viewBox="0 0 26.458333 30.15481375"
    version="1.1" x="0px" y="0px">
    <g transform="translate(-48.931401,-137.16392)">
        <path
            d="m 62.136577,137.16392 v 0.0709 c -1.301067,2.10005 -2.633838,4.1826 -3.998857,6.24748 -0.266548,0.40104 -0.355968,0.35478 -0.869503,0.47093 -2.77961,0.6301 -5.52088,1.22548 -8.223868,1.78629 -0.133682,0.0277 -0.148657,0.0863 -0.04514,0.176 l 3.974977,3.83313 c 0.0159,0.0146 0.04154,0.0112 0.05254,-0.007 l 1.296017,-2.2608 c 0.02079,-0.033 0.02697,-0.0722 0.0172,-0.1101 l -1.083239,-0.53923 c -0.011,-0.0465 0.01706,-0.0942 0.06352,-0.1077 l 2.711915,-0.26651 c 0.06684,-0.0179 0.08281,0.003 0.04776,0.0638 -0.99528,1.69956 -1.946753,3.35246 -2.844217,5.12293 -0.0159,0.0318 -0.05612,0.043 -0.08669,0.0234 l -4.018917,-2.5629 c -0.02609,-0.0171 -0.03551,-0.0106 -0.02818,0.0196 0.02364,0.0897 0.04188,0.14213 0.05492,0.15762 1.924534,2.26322 3.806408,4.61213 5.853211,6.76164 1.464797,1.53693 2.990587,3.29387 4.988482,4.68042 0.03342,0.0237 0.04072,0.0173 0.02197,-0.0194 -0.649255,-1.23493 -1.351066,-2.63879 -1.600498,-4.01677 -0.01141,-0.0611 0.0111,-0.0782 0.06734,-0.0514 l 1.479422,0.70067 c 0.0379,0.0171 0.06736,0.0465 0.08693,0.0819 l 2.082892,3.8305 v 0.0372 c 0.008,0.003 0.01613,4.6e-4 0.02412,-0.006 0.008,0.006 0.01593,0.008 0.02388,0.006 v -0.0372 l 2.082892,-3.8305 c 0.01956,-0.0354 0.04902,-0.0648 0.08693,-0.0819 l 1.479422,-0.70067 c 0.05625,-0.0269 0.07875,-0.01 0.06735,0.0514 -0.249432,1.37798 -0.951244,2.78184 -1.6005,4.01677 -0.01875,0.0367 -0.01144,0.043 0.02197,0.0194 1.997895,-1.38655 3.523682,-3.14349 4.988481,-4.68042 2.046806,-2.14951 3.928675,-4.49842 5.853207,-6.76164 0.01303,-0.0155 0.03129,-0.0679 0.05493,-0.15762 0.0073,-0.0302 -0.0023,-0.0367 -0.02819,-0.0196 l -4.018914,2.5629 c -0.03055,0.0195 -0.07079,0.008 -0.08669,-0.0234 -0.897463,-1.77047 -1.848934,-3.42337 -2.844214,-5.12293 -0.03508,-0.0603 -0.01909,-0.0817 0.04776,-0.0638 l 2.711918,0.26651 c 0.04646,0.0135 0.07453,0.0612 0.06352,0.1077 l -1.083237,0.53923 c -0.0098,0.0379 -0.0037,0.0771 0.01719,0.1101 l 1.296017,2.2608 c 0.011,0.0183 0.03665,0.0219 0.05254,0.007 l 3.974975,-3.83313 c 0.103525,-0.0897 0.08855,-0.14828 -0.04515,-0.176 -2.702989,-0.56081 -5.444255,-1.15619 -8.223865,-1.78629 -0.513535,-0.11615 -0.602954,-0.0699 -0.869504,-0.47093 -1.365018,-2.06488 -2.69779,-4.14743 -3.998857,-6.24748 v -0.0709 c -0.0034,0.003 -0.007,0.005 -0.0095,0.009 -0.0048,0.008 -0.0095,0.0154 -0.01433,0.0232 -0.0048,-0.008 -0.0098,-0.0154 -0.01457,-0.0232 -0.0025,-0.004 -0.0062,-0.007 -0.0095,-0.009 z m 0.02412,4.95791 c 0.09128,0.12298 2.443197,3.29143 2.912515,3.82071 0.0432,0.0489 0.03401,0.0635 -0.02794,0.0439 -0.946896,-0.39345 -1.906485,-0.65492 -2.860694,-0.69565 v -0.003 c -0.0079,2.4e-4 -0.01593,9.2e-4 -0.02388,0.001 -0.008,-3.6e-4 -0.01609,-9.2e-4 -0.02412,-0.001 v 0.003 c -0.954207,0.0407 -1.913798,0.3022 -2.860693,0.69565 -0.06195,0.0196 -0.07114,0.005 -0.02794,-0.0439 0.469334,-0.5293 2.821628,-3.69793 2.912754,-3.82071 z m 0,3.94107 c 3.015023,0.03 5.439936,2.41876 5.419057,5.34407 -0.02043,2.90059 -2.438433,5.23928 -5.419057,5.26645 -2.980733,-0.027 -5.39885,-2.36578 -5.419294,-5.26645 -0.02088,-2.92539 2.40416,-5.31418 5.419294,-5.34407 z m -0.07069,0.79667 c -2.488883,-0.0575 -4.551544,1.90866 -4.606627,4.39361 -0.05496,2.48407 1.918485,4.54562 4.407222,4.60328 0.09074,0.002 0.18059,-2.5e-4 0.270092,-0.004 0.08943,0.003 0.179195,0.006 0.269855,0.004 2.488737,-0.0577 4.462181,-2.11921 4.407221,-4.60328 -0.05508,-2.48495 -2.117743,-4.4511 -4.606627,-4.39361 -0.02365,4.6e-4 -0.04701,0.002 -0.07045,0.003 -0.02352,-0.001 -0.04695,-0.003 -0.07069,-0.003 z m -0.133972,1.67883 c 0.06086,0 0.120718,0.004 0.180539,0.008 v 0.002 c 0.008,-4.6e-4 0.01614,-3.6e-4 0.02412,-9.2e-4 0.0079,4.6e-4 0.01599,3.6e-4 0.02388,9.2e-4 v -0.002 c 0.05982,-0.004 0.119686,-0.008 0.180539,-0.008 1.549166,0 2.806007,1.25684 2.806007,2.806 0,1.54917 -1.25684,2.80601 -2.806007,2.80601 -0.06085,0 -0.120717,-0.004 -0.180539,-0.008 v -0.002 c -0.0079,4.6e-4 -0.01599,3.6e-4 -0.02388,9.2e-4 -0.008,-4.6e-4 -0.01616,-3.6e-4 -0.02412,-9.2e-4 v 0.002 c -0.05982,0.004 -0.119684,0.008 -0.180539,0.008 -1.549165,0 -2.806006,-1.25684 -2.806006,-2.80601 0,-1.54916 1.256841,-2.806 2.806006,-2.806 z m -5.92724,2.5531 c 0.01081,0.003 0.01769,0.0194 0.02054,0.0475 -0.117078,0.88917 0.184577,1.79842 0.348422,2.30832 0.0049,0.097 -0.02279,0.10719 -0.08311,0.0306 l -1.38342,-0.9144 1.053147,-1.44528 c 0.01875,-0.0212 0.03363,-0.0302 0.04442,-0.0267 z m 12.263565,0 c 0.01081,-0.003 0.02565,0.006 0.04441,0.0268 l 1.053148,1.44527 -1.383419,0.9144 c -0.06032,0.0766 -0.088,0.0664 -0.08311,-0.0306 0.163846,-0.50991 0.465502,-1.41916 0.348423,-2.30833 0.0028,-0.0281 0.0098,-0.044 0.02052,-0.0475 z"
            style="" fill="#000000" fill-opacity="1" stroke="none" />
    </g>
    <text x="0" y="39.123851" fill="#000000" font-size="5px" font-weight="bold"
        font-family="'Helvetica Neue', Helvetica, Arial-Unicode, Arial, Sans-serif"></text>
    <text x="0" y="44.123851" fill="#000000" font-size="5px" font-weight="bold"
        font-family="'Helvetica Neue', Helvetica, Arial-Unicode, Arial, Sans-serif"></text>
</svg>