<svg xmlns:dc="http://purl.org/dc/elements/1.1/" xmlns:cc="http://creativecommons.org/ns#"
    xmlns:rdf="http://www.w3.org/1999/02/22-rdf-syntax-ns#" xmlns:svg="http://www.w3.org/2000/svg"
    xmlns="http://www.w3.org/2000/svg"
    xmlns:sodipodi="http://sodipodi.sourceforge.net/DTD/sodipodi-0.dtd"
    xmlns:inkscape="http://www.inkscape.org/namespaces/inkscape"
    viewBox="0 0 26.113216 33.072922500000004" version="1.1" x="0px" y="0px">
    <g transform="translate(-80.452166,-134.21674)">
        <path
            d="m 87.792899,147.24298 2.173272,-2.16981 2.204349,2.37012 -2.098285,2.11506 z m -7.340235,-2.79278 3.338462,-0.0329 5.61705,5.85277 -1.118195,1.11618 c 0,0 -3.547023,-3.68126 -5.315191,-5.54415 -0.556025,-0.58731 -2.558847,-1.39121 -2.522126,-1.39192 z m 6.936259,2.33737 -1.44319,-1.44602 2.184741,-2.18067 1.44319,1.44608 z m 6.078016,6.54384 -2.172092,-2.17099 2.367799,-2.20684 2.117267,2.09606 z m -2.78506,7.34317 -0.03638,-3.33843 5.84686,-5.6232 1.117354,1.11702 c 0,0 -3.67753,3.55089 -5.538565,5.32102 -0.586726,0.55664 -1.388513,2.56031 -1.389261,2.52359 z m 2.330077,-6.93871 -1.444502,1.4447 -2.182963,-2.18244 1.44455,-1.44471 z m 6.25245,-6.2366 -2.203399,2.1392 -2.170991,-2.4007 2.12765,-2.08552 z m 7.300474,2.89513 -3.3386,-0.0138 -5.53467,-5.93072 1.133694,-1.10044 c 0,0 3.495206,3.73049 5.237156,5.61793 0.54776,0.59503 2.53914,1.42684 2.50242,1.42704 z m -6.902903,-2.43412 1.422833,1.46606 -2.21502,2.1499 -1.42283,-1.4661 z m -6.159686,-6.42456 2.15299,2.18994 -2.387043,2.18601 -2.098825,-2.11453 z m 2.849296,-7.31848 0.0071,3.33862 -5.895906,5.57175 -1.107522,-1.12676 c 0,0 3.708502,-3.51854 5.584975,-5.27229 0.591578,-0.55148 1.41089,-2.54804 1.411316,-2.51132 z m -2.39078,6.91803 1.457101,-1.432 2.16376,2.20149 -1.457161,1.432 z"
            style="" fill="#000000" fill-opacity="1" stroke="none" />
    </g>
    <text x="0" y="41.458338" fill="#000000" font-size="5px" font-weight="bold"
        font-family="'Helvetica Neue', Helvetica, Arial-Unicode, Arial, Sans-serif"></text>
    <text x="0" y="46.458338" fill="#000000" font-size="5px" font-weight="bold"
        font-family="'Helvetica Neue', Helvetica, Arial-Unicode, Arial, Sans-serif"></text>
</svg>