<svg xmlns:dc="http://purl.org/dc/elements/1.1/" xmlns:cc="http://creativecommons.org/ns#"
    xmlns:rdf="http://www.w3.org/1999/02/22-rdf-syntax-ns#" xmlns:svg="http://www.w3.org/2000/svg"
    xmlns="http://www.w3.org/2000/svg"
    xmlns:sodipodi="http://sodipodi.sourceforge.net/DTD/sodipodi-0.dtd"
    xmlns:inkscape="http://www.inkscape.org/namespaces/inkscape" viewBox="0 0 26.458814 32.8868075"
    version="1.1" x="0px" y="0px">
    <g transform="translate(-61.662551,-120.56814)">
        <path transform="matrix(0.26458333,0,0,0.26458333,61.662792,120.56814)"
            d="M 49.933594,0 V 0.51171875 L 39.787109,39.503906 c -0.202431,0.778205 -0.128235,1.529673 0.222657,2.253906 l 6.273437,12.832032 c 0.08772,0.17537 0.0499,0.392414 -0.0918,0.527344 -2.208756,2.109807 -3.986988,4.543162 -5.332031,7.300781 -0.081,0.161764 0.0142,0.362572 0.189453,0.410156 1.583543,0.45702 6.728908,7.099598 8.884766,10.107422 v 0.179687 c 0.01701,-0.02268 0.0491,-0.06528 0.06641,-0.08984 0.01739,0.02268 0.04966,0.06603 0.06641,0.08984 v -0.179687 c 2.155858,-3.007824 7.301223,-9.650402 8.884766,-10.107422 0.175483,-0.04724 0.27041,-0.248052 0.189453,-0.410156 -1.345047,-2.757619 -3.123275,-5.190974 -5.332031,-7.300781 -0.141695,-0.13493 -0.17952,-0.351861 -0.0918,-0.527344 l 6.273437,-12.832032 c 0.350854,-0.724233 0.425077,-1.475701 0.222657,-2.253906 L 50.066406,0.51171875 V 0 L 50,0.25585938 Z M 23.888672,13.818359 c -0.02699,-0.0077 -0.05646,-0.0046 -0.08008,0.01563 -12.145905,9.055446 -25.1432329,23.968067 -23.699219,40.351563 0.82322268,9.44005 7.1804951,17.503387 16.580078,19.554687 v 0.002 c 0.195719,0.04006 0.391661,-0.0551 0.472656,-0.230469 2.276236,-4.867377 5.847483,-8.466671 10.714844,-10.796875 0.503816,-0.242722 0.477735,-0.39114 -0.08008,-0.445313 -28.9477531,-2.692346 -12.23349,-35.540138 -3.798828,-48.097656 0.02041,-0.03326 0.02728,-0.07479 0.01367,-0.115234 L 23.949219,13.875 c -0.01011,-0.02967 -0.03356,-0.04889 -0.06055,-0.05664 z m 52.222656,0 c -0.02699,0.0077 -0.05042,0.02697 -0.06055,0.05664 l -0.06055,0.181641 c -0.01361,0.04044 -0.0087,0.08197 0.01172,0.115234 8.434662,12.557518 25.148902,45.40531 -3.798828,48.097656 -0.557813,0.05417 -0.583894,0.202591 -0.08008,0.445313 4.867364,2.330204 8.438611,5.929498 10.714844,10.796875 0.081,0.17537 0.277012,0.270531 0.472656,0.230469 v -0.002 C 92.710134,71.688934 99.067406,63.625597 99.890625,54.185547 101.33464,37.802051 88.337315,22.88943 76.191406,13.833984 c -0.02362,-0.02022 -0.05309,-0.02337 -0.08008,-0.01563 z M 31.251953,30.804688 c -0.04161,-0.0067 -0.08995,0.03801 -0.148437,0.134765 -5.964991,9.58851 -6.108491,25.695847 8.601562,27.457031 0.202447,0.02721 0.40555,-0.0815 0.5,-0.263672 1.596964,-3.018507 1.918522,-6.070316 0.964844,-9.15625 -0.998665,-3.225411 -4.589029,-5.654623 -5.871094,-7.847656 -1.839884,-3.148926 -3.155533,-6.531656 -3.947266,-10.148437 -0.02473,-0.110236 -0.058,-0.169041 -0.09961,-0.175781 z m 37.496094,0 c -0.04161,0.0067 -0.07487,0.06555 -0.09961,0.175781 -0.791733,3.616781 -2.107382,6.999511 -3.947266,10.148437 -1.282065,2.193033 -4.872429,4.622245 -5.871094,7.847656 -0.953678,3.085934 -0.63212,6.137743 0.964844,9.15625 0.09449,0.182174 0.297553,0.290885 0.5,0.263672 14.71005,-1.761184 14.566553,-17.868521 8.601562,-27.457031 -0.05848,-0.09676 -0.106825,-0.141506 -0.148436,-0.134765 z M 37.492188,61.007812 C 23.477155,62.24266 9.6848179,86.203938 28.828125,93.4375 v 0.002 c 0.404863,0.155188 0.702208,0.512417 0.783203,0.9375 0.29251,1.596977 0.298435,3.184711 0.01953,4.763672 -0.05849,0.32378 0.04046,0.382647 0.296875,0.175781 3.603286,-2.960025 4.965688,-6.772605 4.083985,-11.4375 -0.03375,-0.189241 0.08059,-0.377593 0.269531,-0.43164 5.249734,-1.484485 9.168812,0.07271 13.865234,1.449218 0.301405,0.08537 0.384955,-0.01018 0.25,-0.289062 -2.10979,-4.359055 -5.279236,-7.70765 -9.507812,-10.046875 -0.175446,-0.09487 -0.390614,-0.01421 -0.464844,0.167969 -1.673431,4.386028 -6.28261,5.088043 -9.076172,1.363281 -4.554716,-6.086438 3.084437,-15.547098 8.199219,-18.927735 0.193411,-0.126236 0.17473,-0.178927 -0.05469,-0.15625 z m 25.015624,0 c -0.229417,-0.02268 -0.248098,0.03001 -0.05469,0.15625 5.114778,3.380637 12.753935,12.841297 8.199219,18.927735 -2.793562,3.724762 -7.402741,3.022747 -9.076172,-1.363281 -0.07423,-0.182174 -0.289364,-0.262835 -0.464844,-0.167969 -4.228578,2.339225 -7.398022,5.68782 -9.507812,10.046875 -0.134955,0.278879 -0.05141,0.374429 0.25,0.289062 4.696418,-1.376504 8.6155,-2.933703 13.865234,-1.449218 0.188939,0.05405 0.303282,0.242399 0.269531,0.43164 -0.881703,4.664895 0.480699,8.477475 4.083985,11.4375 0.256413,0.206866 0.355341,0.147999 0.296875,-0.175781 -0.278904,-1.578961 -0.272979,-3.166695 0.01953,-4.763672 0.081,-0.425083 0.378344,-0.782312 0.783203,-0.9375 v -0.002 C 90.315182,86.203938 76.522841,62.24266 62.507812,61.007812 Z"
            style="" fill="#000000" fill-opacity="1" stroke="none" />
    </g>
    <text x="0" y="41.309446" fill="#000000" font-size="5px" font-weight="bold"
        font-family="'Helvetica Neue', Helvetica, Arial-Unicode, Arial, Sans-serif"></text>
    <text x="0" y="46.309446" fill="#000000" font-size="5px" font-weight="bold"
        font-family="'Helvetica Neue', Helvetica, Arial-Unicode, Arial, Sans-serif"></text>
</svg>