<svg xmlns:dc="http://purl.org/dc/elements/1.1/" xmlns:cc="http://creativecommons.org/ns#"
    xmlns:rdf="http://www.w3.org/1999/02/22-rdf-syntax-ns#" xmlns:svg="http://www.w3.org/2000/svg"
    xmlns="http://www.w3.org/2000/svg"
    xmlns:sodipodi="http://sodipodi.sourceforge.net/DTD/sodipodi-0.dtd"
    xmlns:inkscape="http://www.inkscape.org/namespaces/inkscape" viewBox="0 0 21.417361 33.07253"
    version="1.1" x="0px" y="0px">
    <g transform="translate(-16.312194,-102.10412)">
        <path style=""
            d="m 27.006212,102.10412 v 0.0891 c -1.351151,4.74626 -3.580029,9.03308 -6.688156,12.86 -0.06246,0.0758 -0.123138,0.13608 -0.182271,0.18105 -0.02873,0.0213 -0.07007,0.006 -0.07881,-0.0286 -0.184065,-0.81538 -0.202319,-1.63628 -0.0549,-2.46249 0.0062,-0.0387 0.02376,-0.0737 0.05124,-0.10248 0.499721,-0.52971 1.243017,-0.66693 1.927634,-0.79936 0.0683,-0.0133 0.06797,-0.0238 -0.0012,-0.0312 -0.5372,-0.0583 -1.06854,-0.024 -1.594079,0.10346 -0.10744,0.0258 -0.143807,-0.0136 -0.108827,-0.11859 0.64339,-1.93142 2.162639,-3.69668 4.160273,-4.27886 0.01332,-0.003 0.01707,-0.0126 0.01122,-0.0276 -0.005,-0.0112 -0.01511,-0.0173 -0.02635,-0.0161 -4.867279,0.71835 -8.352655,4.4925 -8.096548,9.53593 0.01,0.18656 0.05241,0.1944 0.12737,0.0237 0.647138,-1.46502 1.571137,-2.72807 2.772132,-3.78914 0.05913,-0.0525 0.08214,-0.0395 0.06881,0.0388 -0.158244,0.892 -0.110937,1.77179 0.142255,2.63964 0.01124,0.0425 0.0014,0.0888 -0.02855,0.12005 l -2.008887,2.16261 c -0.01375,0.015 -0.01375,0.0375 0,0.0512 l 9.557158,10.27794 c 0.01407,0.015 0.03192,0.0222 0.05051,0.0259 v 0.003 c 0.0049,3.8e-4 0.0097,-0.001 0.01464,-0.002 0.0049,2.5e-4 0.0097,0.002 0.01464,0.002 v -0.003 c 0.01859,-0.004 0.03644,-0.0109 0.05051,-0.0259 l 9.557157,-10.27794 c 0.01374,-0.0137 0.01374,-0.0363 0,-0.0512 l -2.008887,-2.16261 c -0.02998,-0.0312 -0.03979,-0.0776 -0.02855,-0.12005 0.253192,-0.86785 0.300499,-1.74764 0.142254,-2.63964 -0.01332,-0.0783 0.0097,-0.0913 0.06881,-0.0388 1.200995,1.06107 2.124993,2.32412 2.772131,3.78914 0.07496,0.17074 0.117376,0.16289 0.127371,-0.0237 0.256106,-5.04343 -3.229269,-8.81758 -8.096549,-9.53593 -0.01124,-10e-4 -0.02136,0.005 -0.02635,0.0161 -0.0058,0.015 -0.0021,0.0242 0.01123,0.0276 1.997633,0.58218 3.516882,2.34744 4.160272,4.27886 0.03498,0.10494 -0.0014,0.14441 -0.108826,0.11859 -0.525539,-0.12743 -1.05688,-0.16176 -1.594079,-0.10346 -0.06919,0.008 -0.06952,0.0179 -0.0012,0.0312 0.684617,0.13243 1.427913,0.26965 1.927634,0.79936 0.02748,0.0287 0.04499,0.0637 0.05124,0.10248 0.147416,0.82621 0.129163,1.64711 -0.0549,2.46249 -0.0087,0.035 -0.05008,0.0498 -0.07881,0.0286 -0.05913,-0.045 -0.119806,-0.10526 -0.182271,-0.18105 -3.108128,-3.82692 -5.337005,-8.11374 -6.688156,-12.86 v -0.0891 c -0.0034,0.005 -0.0068,0.0119 -0.01,0.0239 -0.0015,0.005 -0.0032,0.0104 -0.0046,0.0156 -0.0015,-0.005 -0.0032,-0.0104 -0.0046,-0.0156 -0.0033,-0.0119 -0.0066,-0.0191 -0.01,-0.0239 z m 0.01464,5.64406 1.450604,2.574 c 0.02249,0.0387 0.02762,0.0849 0.01513,0.12737 l -0.677112,2.2712 c -0.0087,0.03 0.01003,0.0599 0.04002,0.0661 3.664202,0.72584 5.681668,4.89233 3.494141,8.08679 -1.085347,1.58469 -2.712196,2.33232 -4.322779,2.34634 -1.610583,-0.014 -3.237433,-0.76165 -4.32278,-2.34634 -2.187527,-3.19446 -0.170061,-7.36095 3.494141,-8.08679 0.02998,-0.006 0.04876,-0.0361 0.04002,-0.0661 l -0.677113,-2.2712 c -0.01249,-0.0425 -0.0074,-0.0886 0.01513,-0.12737 z m -0.571215,6.58665 c -1.953907,0.40103 -3.25568,2.19126 -2.967091,4.22762 0.257751,1.81728 1.837894,3.04547 3.523665,3.07836 v 9.4e-4 c 0.0049,-5e-5 0.0098,-3.8e-4 0.01464,-4.7e-4 0.0049,8e-5 0.0098,3.7e-4 0.01464,4.7e-4 v -9.4e-4 c 1.685772,-0.0329 3.265914,-1.26108 3.523665,-3.07836 0.288589,-2.03636 -1.013183,-3.82659 -2.967091,-4.22762 -0.06996,-0.0137 -0.138575,0.0325 -0.149818,0.10371 l -0.421395,2.64549 -0.421396,-2.64549 c -0.01124,-0.0712 -0.07986,-0.11745 -0.149819,-0.10371 z"
            fill="#000000" fill-opacity="1" stroke="none" />
    </g>
    <text x="0" y="41.458024" fill="#000000" font-size="5px" font-weight="bold"
        font-family="'Helvetica Neue', Helvetica, Arial-Unicode, Arial, Sans-serif"></text>
    <text x="0" y="46.458024" fill="#000000" font-size="5px" font-weight="bold"
        font-family="'Helvetica Neue', Helvetica, Arial-Unicode, Arial, Sans-serif"></text>
</svg>