<svg xmlns:dc="http://purl.org/dc/elements/1.1/" xmlns:cc="http://creativecommons.org/ns#"
    xmlns:rdf="http://www.w3.org/1999/02/22-rdf-syntax-ns#" xmlns:svg="http://www.w3.org/2000/svg"
    xmlns="http://www.w3.org/2000/svg"
    xmlns:sodipodi="http://sodipodi.sourceforge.net/DTD/sodipodi-0.dtd"
    xmlns:inkscape="http://www.inkscape.org/namespaces/inkscape" viewBox="0 0 18.602381 33.07290125"
    version="1.1" x="0px" y="0px">
    <g transform="translate(-46.470941,-116.5138)">
        <path
            d="m 65.041272,131.03927 c 0.05186,-1.22404 0.03408,-2.9645 -0.0059,-3.58118 -0.0011,-0.0301 -4.099179,4.34055 -4.099179,4.34055 -0.02964,0.0332 -0.04742,0.073 -0.05039,0.11418 -0.179321,2.3339 -2.058482,4.31466 -4.405951,5.18688 -0.03853,0.0146 -0.05186,0.0572 -0.02667,0.0876 1.019607,1.26917 2.667578,1.73118 4.272572,1.07534 2.894322,-1.18287 4.205881,-4.58548 4.315548,-7.2234 z m -2.410597,-4.63515 -2.380333,4.86487 4.144526,-4.85977 z m -6.334616,10.16986 c 0,0.004 0.0059,0.0101 0.01185,0.0101 0.05335,-0.004 0.158573,-0.0425 0.192659,-0.0836 q 2.098495,-2.56756 3.297423,-5.57321 1.97549,-4.9519 3.150707,-10.10427 0.01482,-0.0664 -0.03557,-0.0173 -3.982101,3.93231 -6.471842,8.74084 -0.157091,0.30269 -0.164501,0.64254 -0.0578,2.96716 0.01927,6.38438 z M 55.670547,116.5138 c -0.02667,2.3e-4 -0.05276,0.0322 -0.07844,0.0959 -0.892156,2.20645 -2.005315,4.31953 -3.339105,6.33924 -0.03112,0.0491 -0.02949,0.11017 0.006,0.1566 l 0.825513,1.0766 c 0.03112,0.0412 0.100713,0.0373 0.125911,-0.006 0.869434,-1.49752 1.679644,-3.01987 2.430519,-4.56696 0.02095,-0.0443 0.04216,-0.0608 0.06338,-0.056 v 0.0319 c 0.007,-0.009 0.01385,-0.0151 0.02084,-0.0195 0.0039,0.004 0.0077,0.006 0.01158,0.0112 v -0.0142 c 0.02123,-0.004 0.04243,0.0117 0.06339,0.056 0.750874,1.54708 1.561085,3.06945 2.430519,4.56697 0.02519,0.0438 0.09478,0.0476 0.12591,0.006 l 0.825514,-1.07659 c 0.03557,-0.0465 0.03721,-0.1075 0.006,-0.15662 -1.333789,-2.0197 -2.446947,-4.13277 -3.339104,-6.33923 -0.02569,-0.0637 -0.05176,-0.0957 -0.07844,-0.0959 -0.0155,-1.2e-4 -0.03131,0.0167 -0.04718,0.0397 -0.01786,-0.0284 -0.03556,-0.0486 -0.05297,-0.0484 z m 0.0411,4.56204 c -0.02593,0 -0.05196,0.0234 -0.07815,0.0703 l -2.110386,3.822 c -0.01927,0.0345 -0.0193,0.077 0.0015,0.11152 l 2.179853,3.69755 v 0.0282 c 0.0076,0.004 0.01533,0.002 0.02344,-0.008 0.003,-4e-5 0.006,5e-4 0.0089,-0.001 v -0.0101 l 2.179855,-3.69754 c 0.02078,-0.0345 0.02071,-0.077 0.0015,-0.11152 l -2.110449,-3.82198 c -0.02376,-0.0425 -0.04738,-0.0647 -0.07092,-0.0686 v -0.002 c -0.0084,-0.004 -0.01676,-0.008 -0.02518,-0.008 z m -0.0072,16.60132 c -0.01946,-2.6e-4 -0.03918,0.007 -0.05326,0.0213 -1.0532,1.06384 -2.386989,1.60363 -4.001368,1.61956 -0.04595,9.9e-4 -0.08881,0.0213 -0.115492,0.0545 -0.09781,0.12348 0.0015,0.24034 0.136331,0.30805 1.769494,0.89611 2.941816,1.67406 3.998474,3.26452 0.0089,0.0133 0.02371,0.0184 0.0385,0.0176 0.01977,0.0144 0.04997,0.013 0.06455,-0.009 1.056658,-1.59045 2.22898,-2.3684 3.998474,-3.26453 0.134849,-0.0678 0.234143,-0.18457 0.136332,-0.30804 -0.02667,-0.0332 -0.06954,-0.0531 -0.115491,-0.0545 -1.614379,-0.016 -2.948168,-0.55572 -4.001368,-1.61955 -0.01408,-0.0146 -0.03381,-0.0215 -0.05326,-0.0213 -0.01016,-0.004 -0.02103,-0.009 -0.03242,-0.009 z m -9.201456,-6.63789 c -0.05186,-1.22404 -0.03408,-2.9645 0.0059,-3.58118 0.0011,-0.0301 4.099179,4.34055 4.099179,4.34055 0.02964,0.0332 0.04742,0.073 0.05039,0.11418 0.179321,2.3339 2.058482,4.31466 4.40595,5.18688 0.03853,0.0146 0.05186,0.0572 0.02667,0.0876 -1.019609,1.26917 -2.667579,1.73118 -4.272572,1.07534 -2.894323,-1.18287 -4.205883,-4.58548 -4.31555,-7.2234 z m 2.410596,-4.63515 2.380334,4.86487 -4.144526,-4.85977 z m 6.334616,10.16986 c 0,0.004 -0.0059,0.0101 -0.01185,0.0101 -0.05335,-0.004 -0.158572,-0.0425 -0.192658,-0.0836 q -2.098494,-2.56756 -3.297422,-5.57321 -1.975491,-4.9519 -3.150708,-10.10427 -0.01482,-0.0664 0.03556,-0.0173 3.982103,3.93231 6.471843,8.74084 0.15709,0.30269 0.1645,0.64254 0.0578,2.96716 -0.01927,6.38438 z"
            style="" fill="#000000" fill-opacity="1" stroke="none" />
    </g>
    <text x="0" y="41.458321" fill="#000000" font-size="5px" font-weight="bold"
        font-family="'Helvetica Neue', Helvetica, Arial-Unicode, Arial, Sans-serif"></text>
    <text x="0" y="46.458321" fill="#000000" font-size="5px" font-weight="bold"
        font-family="'Helvetica Neue', Helvetica, Arial-Unicode, Arial, Sans-serif"></text>
</svg>