<svg xmlns:dc="http://purl.org/dc/elements/1.1/" xmlns:cc="http://creativecommons.org/ns#"
    xmlns:rdf="http://www.w3.org/1999/02/22-rdf-syntax-ns#" xmlns:svg="http://www.w3.org/2000/svg"
    xmlns="http://www.w3.org/2000/svg"
    xmlns:sodipodi="http://sodipodi.sourceforge.net/DTD/sodipodi-0.dtd"
    xmlns:inkscape="http://www.inkscape.org/namespaces/inkscape"
    viewBox="0 0 26.458316 22.113744999999998" version="1.1" x="0px" y="0px">
    <g transform="translate(-71.841606,-128.60331)">
        <path
            d="m 91.541309,135.52838 c 2.796567,-0.78403 1.885748,-3.85166 0.35558,-5.25942 q -0.05392,-0.0481 -0.03354,0.0219 0.649957,2.31274 -1.005544,3.98136 c -0.858355,0.86418 -2.089773,0.11512 -1.70359,-1.06821 0.04225,-0.12679 -0.06995,-0.25212 -0.201106,-0.22588 -1.103182,0.22879 -1.550575,0.88896 -2.174301,1.72545 -0.03062,0.0408 -0.03789,0.0947 -0.01752,0.14282 l 0.231713,0.56106 c 0.01752,0.0408 0.05538,0.07 0.0991,0.0743 0.335178,0.0364 0.699505,-0.0321 0.992422,0.10493 q 0.817547,0.38181 0.893331,1.33489 c 0.0028,0.0452 0.03062,0.0831 0.07286,0.10055 0.266683,0.1093 0.591667,0.11658 0.81172,0.26669 q 0.556686,0.38181 0.805886,1.02885 0.02622,0.0685 0.0583,0.003 c 0.466334,-0.93559 0.448847,-1.2766 -0.0685,-2.1743 q -0.03498,-0.0612 0.03498,-0.0525 c 1.662788,0.19819 2.462847,-0.0364 4.044024,-0.68202 0.403671,-0.16613 0.785486,-0.19382 1.208103,-0.239 0.04808,-0.004 0.0889,-0.0335 0.1093,-0.0772 q 0.674732,-1.45439 2.187417,-2.00525 0.1195,-0.0437 -0.0073,-0.0598 c -1.3961,-0.17196 -3.717586,0.3075 -4.125635,1.92948 -0.01168,0.0452 -0.03933,0.0831 -0.08015,0.10784 q -0.823374,0.49402 -1.760421,0.65579 -0.413877,0.0714 -0.735942,-0.13408 -0.06266,-0.0408 0.0088,-0.0612 z m -12.941011,0 c -2.796569,-0.78403 -1.885753,-3.85166 -0.355582,-5.25942 q 0.05392,-0.0481 0.03352,0.0219 -0.649958,2.31274 1.00554,3.98136 c 0.858353,0.86418 2.089777,0.11512 1.703591,-1.06821 -0.04226,-0.12679 0.06995,-0.25212 0.201108,-0.22588 1.10318,0.22879 1.550573,0.88896 2.174302,1.72545 0.03062,0.0408 0.03789,0.0947 0.01746,0.14282 l -0.231713,0.56106 c -0.01752,0.0408 -0.05538,0.07 -0.09909,0.0743 -0.335185,0.0364 -0.699511,-0.0321 -0.99243,0.10493 q -0.817548,0.38181 -0.893328,1.33489 c -0.0029,0.0452 -0.0306,0.0831 -0.07286,0.10055 -0.266687,0.1093 -0.591666,0.11658 -0.81172,0.26669 q -0.55669,0.38181 -0.805889,1.02885 -0.02623,0.0685 -0.05829,0.003 c -0.466337,-0.93559 -0.448849,-1.2766 0.06849,-2.1743 q 0.03498,-0.0612 -0.03498,-0.0525 c -1.662785,0.19819 -2.462846,-0.0364 -4.044022,-0.68202 -0.403674,-0.16613 -0.785488,-0.19382 -1.208107,-0.239 -0.04809,-0.004 -0.0889,-0.0335 -0.109297,-0.0772 q -0.674733,-1.45439 -2.187416,-2.00525 -0.119499,-0.0437 0.0073,-0.0598 c 1.396099,-0.17196 3.717587,0.3075 4.125632,1.92948 0.01166,0.0452 0.03935,0.0831 0.08015,0.10784 q 0.823377,0.49402 1.760425,0.65579 0.413874,0.0714 0.735939,-0.13408 0.06266,-0.0408 -0.0087,-0.0612 z m 5.469301,-5.27994 c -0.04467,0.29147 -0.03944,0.58112 0.01592,0.8687 0.181679,0.93461 0.366382,0.99444 0.553888,1.92808 0.282722,1.40339 -0.185198,2.7543 -1.075615,3.85019 -0.02721,0.034 -0.06064,0.0583 -0.100476,0.0729 l -0.295726,0.115 c -0.04665,0.0175 -0.07585,0.0657 -0.07002,0.11527 0.06266,0.47654 0.186366,0.97494 -0.320776,1.27514 -0.04517,0.0277 -0.06827,0.0816 -0.05806,0.13264 0.68105,3.50142 1.447489,4.06875 2.299526,7.53131 0.01008,0.0405 0.01999,0.0647 0.02991,0.0894 v 0.0669 c 0.0082,0.002 0.01636,-0.005 0.02479,-0.0151 0.0084,0.01 0.01658,0.0165 0.02479,0.0151 v -0.0669 c 0.0099,-0.0247 0.01983,-0.0489 0.02991,-0.0894 0.852043,-3.46256 1.618482,-4.02989 2.299524,-7.53131 0.01019,-0.051 -0.01289,-0.10495 -0.05806,-0.13264 -0.50714,-0.3002 -0.383437,-0.7986 -0.320774,-1.27514 0.0058,-0.0496 -0.02341,-0.0978 -0.07002,-0.11527 l -0.295732,-0.115 c -0.03982,-0.0146 -0.07327,-0.0388 -0.100476,-0.0729 -0.890411,-1.09589 -1.358331,-2.4468 -1.075615,-3.85019 0.187506,-0.93364 0.372209,-0.99347 0.553888,-1.92808 0.05538,-0.28758 0.06063,-0.57723 0.01592,-0.8687 -0.333345,-2.19345 -1.67328,-2.19355 -2.006642,0 z"
            style="" fill="#000000" fill-opacity="1" stroke="none" />
    </g>
    <text x="0" y="32.690996" fill="#000000" font-size="5px" font-weight="bold"
        font-family="'Helvetica Neue', Helvetica, Arial-Unicode, Arial, Sans-serif"></text>
    <text x="0" y="37.690996" fill="#000000" font-size="5px" font-weight="bold"
        font-family="'Helvetica Neue', Helvetica, Arial-Unicode, Arial, Sans-serif"></text>
</svg>