<svg xmlns:dc="http://purl.org/dc/elements/1.1/" xmlns:cc="http://creativecommons.org/ns#"
    xmlns:rdf="http://www.w3.org/1999/02/22-rdf-syntax-ns#" xmlns:svg="http://www.w3.org/2000/svg"
    xmlns="http://www.w3.org/2000/svg"
    xmlns:sodipodi="http://sodipodi.sourceforge.net/DTD/sodipodi-0.dtd"
    xmlns:inkscape="http://www.inkscape.org/namespaces/inkscape" version="1.1"
    viewBox="0 0 21.236328 33.07302" x="0px" y="0px">
    <g transform="translate(-51.762935,-128.09037)">
        <path
            d="m 57.391736,134.37955 c -0.01061,0.002 -0.01833,0.0165 -0.02338,0.0417 -0.09091,0.45963 -0.05538,0.89987 0.106245,1.32112 0.272744,0.70762 1.187637,0.98179 1.377043,1.69548 0.265169,1.00763 -1.106264,1.75182 -1.91389,1.21693 -0.430333,-0.28487 -0.611984,-0.93809 -0.802905,-1.40782 -0.04445,-0.1101 -0.101183,-0.11651 -0.169875,-0.0195 -2.688051,3.79722 -2.166571,9.42176 2.401909,11.51886 0.0894,0.0409 0.195313,0.16522 0.221072,0.25008 0.03334,0.10909 -0.04232,0.21963 -0.155965,0.23024 -1.783447,0.16668 -3.273057,-1.40002 -3.909462,-2.91981 -0.245471,-0.58792 -0.378493,-0.99716 -0.960349,-1.30779 -0.717219,-0.38286 -1.30476,-0.91725 -1.762366,-1.60315 -0.02828,-0.0424 -0.04015,-0.0381 -0.03611,0.0124 0.123241,1.57182 0.615698,2.98887 1.477369,4.25158 1.187955,1.74253 2.809095,2.53374 4.780435,3.0959 0.06213,0.0182 0.09238,0.0862 0.06511,0.14531 -0.360631,0.75308 -0.08178,1.185 0.313703,1.82748 0.141425,0.22829 0.12257,0.44201 -0.05623,0.64102 l -0.940817,1.05298 c -0.01061,0.0121 -0.01657,0.0274 -0.01657,0.0441 l -0.0018,0.0376 c 0,0.0273 0.02421,0.0483 0.0515,0.0438 1.348572,-0.24396 2.760713,-0.98016 2.46524,-2.62269 -0.01061,-0.0621 0.01215,-0.12429 0.06215,-0.16218 0.304059,-0.23537 0.65527,-0.32828 1.053276,-0.27878 0.207083,0.0263 0.355496,0.13368 0.4454,0.32258 l 0.907079,1.93461 v 0.0486 l 0.01155,-0.0243 0.01124,0.0243 v -0.0486 l 0.907079,-1.93461 c 0.0899,-0.1889 0.238318,-0.2963 0.4454,-0.32258 0.398005,-0.0495 0.749216,0.0434 1.053277,0.27878 0.05,0.0379 0.07276,0.10005 0.06215,0.16218 -0.295474,1.64253 1.116668,2.37873 2.46524,2.62269 0.02728,0.005 0.0515,-0.0165 0.0515,-0.0438 l -0.0015,-0.0376 c 0,-0.0167 -0.006,-0.032 -0.01657,-0.0441 l -0.941113,-1.05328 c -0.178801,-0.19901 -0.197358,-0.41272 -0.05593,-0.64102 0.395479,-0.64246 0.674333,-1.0741 0.313703,-1.82718 -0.02728,-0.0591 0.003,-0.12739 0.06511,-0.1456 1.971339,-0.56217 3.59248,-1.35308 4.780435,-3.09561 0.861669,-1.26271 1.354127,-2.68005 1.477369,-4.25187 0.0041,-0.0505 -0.0081,-0.0546 -0.0364,-0.0121 -0.457605,0.6859 -1.044849,1.22029 -1.762068,1.60315 -0.581856,0.31063 -0.715175,0.71987 -0.960646,1.30778 -0.636404,1.5198 -2.126012,3.0865 -3.909462,2.91982 -0.113642,-0.0106 -0.1893,-0.12115 -0.155965,-0.23024 0.02576,-0.0849 0.131674,-0.20919 0.221073,-0.25008 4.568478,-2.09711 5.089961,-7.72165 2.401908,-11.51886 -0.06869,-0.097 -0.125427,-0.0906 -0.169873,0.0195 -0.190922,0.46973 -0.372575,1.12296 -0.802905,1.40783 -0.807628,0.53488 -2.17906,-0.2093 -1.913891,-1.21694 0.189406,-0.71369 1.104593,-0.98786 1.377338,-1.69548 0.161627,-0.42124 0.196864,-0.86149 0.105949,-1.32111 -0.005,-0.0253 -0.01277,-0.0395 -0.02338,-0.0418 -0.01061,-0.002 -0.02409,0.006 -0.04025,0.0263 -0.475788,0.5859 -0.853836,0.97171 -1.134662,1.15657 -0.468211,0.31062 -1.250186,0.33189 -1.738097,0.78041 -0.591956,0.54447 -0.948158,1.23462 -1.068371,2.07104 -0.0197,0.13637 0.05762,0.27 0.187928,0.31696 3.877524,1.43494 5.342841,6.30454 2.383559,9.5002 -0.66671,0.71974 -1.793962,1.46407 -2.668261,2.20806 -0.03485,0.0303 -0.08947,0.0178 -0.110685,-0.0231 L 62.392332,148.8246 V 148.79 c -0.0038,0.005 -0.0075,0.0119 -0.01124,0.0172 -0.0038,-0.005 -0.0077,-0.0117 -0.01154,-0.0172 v 0.0349 l -0.788996,1.59101 c -0.02121,0.0409 -0.07583,0.0534 -0.110684,0.0231 -0.874299,-0.74398 -2.001549,-1.48802 -2.668259,-2.20777 -2.959282,-3.19566 -1.493967,-8.06555 2.383559,-9.50049 0.13031,-0.047 0.207624,-0.1803 0.187926,-0.31667 -0.120211,-0.83642 -0.476413,-1.52685 -1.068369,-2.07133 -0.487911,-0.44851 -1.269887,-0.46979 -1.738098,-0.78042 -0.280826,-0.18485 -0.658874,-0.57037 -1.134663,-1.15626 -0.01616,-0.0202 -0.02964,-0.0289 -0.04025,-0.0264 z"
            style="" fill="#000000" fill-opacity="1" stroke="none" />
        <path
            d="m 62.369568,128.09037 v 0.0222 l -1.066298,1.85825 c -0.07122,0.12576 -0.08934,0.27285 -0.05297,0.41226 l 0.459015,1.73484 c 0.01212,0.047 -0.01665,0.0956 -0.06363,0.10772 -0.228803,0.0606 -0.880195,-1.73811 -0.966564,-1.97752 -0.01717,-0.0475 -0.03744,-0.0487 -0.06067,-0.005 -0.261633,0.49094 -0.48393,0.99743 -0.666769,1.51969 -0.628828,1.79861 0.250088,2.72896 1.322885,4.11692 0.373392,0.48322 0.738384,1.05301 1.095004,1.70792 v 0.0361 c 0.0034,-0.005 0.0067,-0.008 0.01006,-0.0136 4.54e-4,-0.001 0.0011,-0.002 0.0015,-0.002 4.55e-4,5.8e-4 7.44e-4,0.002 0.0012,0.002 0.0034,0.006 0.0067,0.009 0.01006,0.0136 v -0.0361 c 0.356619,-0.65491 0.721611,-1.2247 1.095004,-1.70792 1.072798,-1.38796 1.951712,-2.31831 1.322884,-4.11692 -0.182839,-0.52226 -0.405136,-1.02875 -0.666769,-1.51969 -0.02323,-0.0443 -0.0435,-0.0431 -0.06067,0.005 -0.08637,0.23941 -0.73776,2.03813 -0.966563,1.97752 -0.04698,-0.0121 -0.07575,-0.0608 -0.06363,-0.10772 l 0.459015,-1.73484 c 0.03637,-0.1394 0.01824,-0.2865 -0.05297,-0.41226 l -1.066298,-1.85825 v -0.0222 c -0.0046,0.002 -0.0074,0.007 -0.01124,0.0109 -0.0038,-0.003 -0.0069,-0.009 -0.01154,-0.0109 z"
            style="" fill="#000000" fill-opacity="1" stroke="none" />
    </g>
    <text x="0" y="41.458416" fill="#000000" font-size="5px" font-weight="bold"
        font-family="'Helvetica Neue', Helvetica, Arial-Unicode, Arial, Sans-serif"></text>
    <text x="0" y="46.458416" fill="#000000" font-size="5px" font-weight="bold"
        font-family="'Helvetica Neue', Helvetica, Arial-Unicode, Arial, Sans-serif"></text>
</svg>