<svg width="36" height="36" viewBox="0 0 36 36" fill="none" xmlns="http://www.w3.org/2000/svg">
    <g clipPath="url(#clip0_836_32721)">
        <path
            d="M17.9674 0V0.104873C16.1971 3.21152 14.3837 6.29229 12.5264 9.34691C12.1637 9.94018 12.042 9.87175 11.3433 10.0436C7.5613 10.9757 3.83145 11.8564 0.15368 12.6861C-0.0282119 12.727 -0.0485864 12.8137 0.092262 12.9464L5.50073 18.6169C5.52237 18.6385 5.55725 18.6334 5.57222 18.6065L7.33562 15.2621C7.36391 15.2132 7.37232 15.1552 7.35902 15.0992L5.88513 14.3015C5.87017 14.2327 5.90835 14.1621 5.97156 14.1422L9.66147 13.7479C9.75242 13.7214 9.77415 13.7523 9.72646 13.8423C8.37225 16.3565 7.07765 18.8017 5.85653 21.4208C5.8349 21.4678 5.78017 21.4844 5.73858 21.4554L0.270318 17.664C0.234819 17.6387 0.222003 17.6483 0.231977 17.693C0.264142 17.8257 0.28896 17.9033 0.306703 17.9262C2.92528 21.2742 5.48581 24.749 8.27076 27.9288C10.2638 30.2024 12.3398 32.8015 15.0582 34.8527C15.1037 34.8877 15.1136 34.8783 15.0881 34.824C14.2047 32.9971 13.2498 30.9204 12.9104 28.8819C12.8949 28.7915 12.9255 28.7662 13.0021 28.8058L15.015 29.8424C15.0666 29.8677 15.1067 29.9112 15.1333 29.9635L17.9673 35.6301V35.6851C17.9782 35.6895 17.9893 35.6858 18.0002 35.6762C18.011 35.6851 18.0218 35.688 18.0326 35.6851V35.6301L20.8667 29.9635C20.8933 29.9112 20.9334 29.8677 20.985 29.8424L22.9979 28.8058C23.0745 28.7661 23.1051 28.7911 23.0896 28.8819C22.7502 30.9204 21.7953 32.9971 20.9119 34.824C20.8864 34.8783 20.8963 34.8876 20.9418 34.8527C23.6602 32.8015 25.7362 30.2024 27.7292 27.9288C30.5142 24.749 33.0747 21.2742 35.6933 17.9262C35.711 17.9032 35.7359 17.8257 35.768 17.693C35.778 17.6483 35.7649 17.6387 35.7297 17.664L30.2614 21.4554C30.2198 21.4842 30.1651 21.4672 30.1435 21.4208C28.9223 18.8017 27.6278 16.3565 26.2735 13.8423C26.2258 13.7531 26.2476 13.7214 26.3385 13.7479L30.0284 14.1422C30.0917 14.1621 30.1299 14.2327 30.1149 14.3015L28.641 15.0992C28.6277 15.1552 28.636 15.2132 28.6644 15.2621L30.4278 18.6065C30.4427 18.6336 30.4776 18.6389 30.4993 18.6169L35.9077 12.9464C36.0486 12.8137 36.0282 12.7271 35.8463 12.6861C32.1685 11.8564 28.4387 10.9757 24.6567 10.0436C23.9579 9.87175 23.8363 9.94017 23.4736 9.34691C21.6163 6.29229 19.8029 3.21152 18.0326 0.104873V0C18.028 0.00443797 18.0231 0.00737801 18.0197 0.0132953C18.0132 0.0251299 18.0068 0.0360896 18.0002 0.0476283C17.9937 0.0357938 17.9869 0.024834 17.9804 0.0132953C17.977 0.00737801 17.9718 0.00295865 17.9674 0ZM18.0002 7.33433C18.1244 7.51626 21.3245 12.2034 21.963 12.9864C22.0218 13.0587 22.0093 13.0803 21.925 13.0513C20.6366 12.4693 19.331 12.0825 18.0327 12.0222V12.0178C18.0219 12.0182 18.011 12.0192 18.0002 12.0193C17.9893 12.0188 17.9783 12.0179 17.9674 12.0178V12.0222C16.669 12.0825 15.3634 12.4693 14.075 13.0513C13.9907 13.0803 13.9782 13.0587 14.037 12.9864C14.6756 12.2034 17.8762 7.51597 18.0002 7.33433ZM18.0002 13.1644C22.1025 13.2088 25.4019 16.7426 25.3735 21.0701C25.3457 25.361 22.0557 28.8206 18.0002 28.8608C13.9445 28.8209 10.6543 25.3611 10.6265 21.0701C10.5981 16.7425 13.8977 13.2087 18.0002 13.1644ZM17.904 14.343C14.5175 14.2579 11.711 17.1665 11.6361 20.8425C11.5613 24.5173 14.2464 27.567 17.6327 27.6523C17.7561 27.6552 17.8784 27.6519 18.0002 27.6464C18.1219 27.6508 18.244 27.6552 18.3673 27.6523C21.7536 27.5669 24.4387 24.5173 24.3639 20.8425C24.289 17.1665 21.4825 14.2579 18.096 14.343C18.0638 14.3437 18.0321 14.3459 18.0002 14.3474C17.9682 14.3459 17.9363 14.343 17.904 14.343ZM17.7217 16.8265C17.8045 16.8265 17.886 16.8324 17.9674 16.8384V16.8413C17.9782 16.8406 17.9893 16.8408 18.0002 16.84C18.0109 16.8406 18.0219 16.8405 18.0327 16.8413V16.8384C18.1141 16.8324 18.1955 16.8265 18.2783 16.8265C20.3861 16.8265 22.0962 18.6858 22.0962 20.9775C22.0962 23.2692 20.3862 25.1285 18.2783 25.1285C18.1955 25.1285 18.1141 25.1226 18.0327 25.1167V25.1137C18.0219 25.1144 18.0109 25.1142 18.0002 25.1151C17.9893 25.1144 17.9782 25.1145 17.9674 25.1137V25.1167C17.886 25.1226 17.8045 25.1285 17.7217 25.1285C15.6139 25.1285 13.9038 23.2692 13.9038 20.9775C13.9038 18.6858 15.6139 16.8265 17.7217 16.8265ZM9.65692 20.6034C9.67163 20.6078 9.68099 20.6321 9.68487 20.6737C9.52557 21.989 9.93602 23.3341 10.1589 24.0884C10.1656 24.2319 10.1279 24.247 10.0459 24.1337L8.16354 22.781L9.59649 20.6429C9.622 20.6116 9.64224 20.5982 9.65692 20.6034ZM26.3431 20.6034C26.3578 20.5989 26.378 20.6123 26.4035 20.643L27.8365 22.781L25.9541 24.1337C25.8721 24.247 25.8344 24.232 25.8411 24.0885C26.064 23.3341 26.4744 21.9891 26.3151 20.6737C26.319 20.6321 26.3285 20.6086 26.3431 20.6034Z"
            fill="#056CF2" />
    </g>
    <defs>
        <clipPath id="clip0_836_32721">
            <rect width="36" height="36" fill="white" />
        </clipPath>
    </defs>
</svg>
    