<svg width="35" height="6" viewBox="0 0 35 6" fill="none" xmlns="http://www.w3.org/2000/svg">
    <g clipPath="url(#clip0_836_32713)">
        <path
            d="M9.88175 17.5353L12.8073 14.6144L15.7747 17.805L12.9501 20.6522L9.88175 17.5353ZM0.000670965 13.7758L4.49475 13.7315L12.0562 21.6102L10.5509 23.1128C10.5509 23.1128 5.77607 18.1573 3.39584 15.6495C2.64734 14.8589 -0.0487611 13.7768 0.000670965 13.7758ZM9.33794 16.9223L7.39518 14.9757L10.3362 12.0402L12.2789 13.9868L9.33794 16.9223ZM17.5199 25.7313L14.5959 22.8088L17.7833 19.8381L20.6335 22.6597L17.5199 25.7313ZM13.7708 35.6163L13.7218 31.1223L21.5926 23.5526L23.0967 25.0563C23.0967 25.0563 18.1462 29.8363 15.6409 32.2192C14.8511 32.9685 13.7718 35.6657 13.7708 35.6163ZM16.9074 26.2758L14.9629 28.2205L12.0243 25.2826L13.9689 23.3378L16.9074 26.2758ZM25.3242 17.8803L22.358 20.76L19.4356 17.5283L22.2997 14.7209L25.3242 17.8803ZM35.1517 21.7776L30.6575 21.759L23.2069 13.7754L24.7331 12.294C24.7331 12.294 29.4382 17.3158 31.7831 19.8566C32.5205 20.6576 35.2012 21.7773 35.1517 21.7776ZM25.8594 18.5009L27.7747 20.4745L24.7929 23.3685L22.8776 21.395L25.8594 18.5009ZM17.5675 9.85248L20.4657 12.8005L17.2524 15.7432L14.4271 12.8967L17.5675 9.85248ZM21.4031 0.000673008L21.4126 4.49497L13.4758 11.9954L11.9849 10.4786C11.9849 10.4786 16.9771 5.74212 19.5032 3.3813C20.2995 2.63892 21.4025 -0.0487578 21.4031 0.000673008ZM18.1847 9.31341L20.1462 7.38572L23.0589 10.3493L21.0974 12.277L18.1847 9.31341Z"
            fill="#056CF2" />
    </g>
    <defs>
        <clipPath id="clip0_836_32713">
            <rect width="35" height="35" fill="white" />
        </clipPath>
    </defs>
</svg>
    