<svg width="40" height="29" viewBox="0 0 40 29" fill="none" xmlns="http://www.w3.org/2000/svg">
    <g clipPath="url(#clip0_836_32695)">
        <path
            d="M29.8226 11.157C34.3401 9.89389 32.8688 4.9516 30.397 2.68354C30.3389 2.63188 30.3209 2.64364 30.3428 2.71882C31.0428 5.20288 30.5013 7.341 28.7185 9.13322C27.3319 10.5255 25.3427 9.3187 25.9665 7.41222C26.0348 7.20795 25.8535 7.00604 25.6417 7.04831C23.8596 7.41692 23.1369 8.48053 22.1293 9.8282C22.0799 9.89394 22.0681 9.98078 22.101 10.0583L22.4753 10.9622C22.5036 11.028 22.5648 11.075 22.6354 11.0819C23.1769 11.1406 23.7654 11.0302 24.2386 11.251C25.119 11.6611 25.6 12.378 25.6816 13.4017C25.6862 13.4745 25.7311 13.5355 25.7993 13.5636C26.2301 13.7397 26.7551 13.7515 27.1106 13.9933C27.7101 14.4034 28.144 14.9559 28.4124 15.6509C28.4406 15.7245 28.472 15.7261 28.5066 15.6557C29.2599 14.1484 29.2316 13.599 28.3959 12.1527C28.3582 12.087 28.3771 12.0588 28.4524 12.0681C31.1385 12.3874 32.4309 12.0095 34.9851 10.9693C35.6371 10.7016 36.2539 10.657 36.9366 10.5842C37.0143 10.5778 37.0802 10.5303 37.1132 10.4599C37.8398 8.89776 39.0177 7.82084 40.6467 7.22918C40.7754 7.18224 40.7715 7.15012 40.6349 7.13283C38.3797 6.85579 34.6296 7.62826 33.9704 10.2415C33.9516 10.3143 33.9069 10.3753 33.841 10.4152C32.9542 10.9458 32.0063 11.298 30.9972 11.4717C30.5515 11.5484 30.1552 11.4764 29.8084 11.2557C29.7409 11.2119 29.7456 11.179 29.8226 11.157ZM8.91789 11.157C4.40035 9.89389 5.87167 4.9516 8.34348 2.68354C8.40155 2.63188 8.41961 2.64364 8.39764 2.71882C7.69768 5.20288 8.23913 7.341 10.022 9.13322C11.4085 10.5255 13.3978 9.3187 12.7739 7.41222C12.7057 7.20795 12.8869 7.00604 13.0988 7.04831C14.8809 7.41692 15.6036 8.48053 16.6111 9.8282C16.6606 9.89394 16.6723 9.98078 16.6393 10.0583L16.265 10.9622C16.2367 11.028 16.1756 11.075 16.1049 11.0819C15.5635 11.1406 14.975 11.0302 14.5018 11.251C13.6214 11.6611 13.1403 12.378 13.0587 13.4017C13.054 13.4745 13.0093 13.5355 12.941 13.5636C12.5102 13.7397 11.9853 13.7515 11.6298 13.9933C11.0303 14.4034 10.5963 14.9559 10.328 15.6509C10.2997 15.7245 10.2683 15.7261 10.2338 15.6557C9.4805 14.1484 9.50875 13.599 10.3444 12.1527C10.3821 12.087 10.3633 12.0588 10.2879 12.0681C7.6019 12.3874 6.3095 12.0095 3.75529 10.9693C3.1032 10.7016 2.48643 10.657 1.80373 10.5842C1.72605 10.5778 1.66012 10.5303 1.62717 10.4599C0.900539 8.89776 -0.2773 7.82084 -1.90634 7.22918C-2.03503 7.18224 -2.0311 7.15012 -1.89455 7.13283C0.360688 6.85579 4.11079 7.62826 4.76994 10.2415C4.78877 10.3143 4.8335 10.3753 4.8994 10.4152C5.78612 10.9458 6.73405 11.298 7.74317 11.4717C8.18888 11.5484 8.58516 11.4764 8.932 11.2557C8.99948 11.2119 8.99474 11.179 8.91789 11.157ZM17.7529 2.65048C17.6807 3.12007 17.6892 3.58672 17.7786 4.05005C18.0721 5.55581 18.3705 5.65221 18.6734 7.15641C19.1301 9.41743 18.3742 11.5939 16.9358 13.3595C16.8919 13.4143 16.8379 13.4534 16.7735 13.4769L16.2958 13.6622C16.2205 13.6904 16.1733 13.7681 16.1827 13.8479C16.2839 14.6157 16.4838 15.4187 15.6645 15.9023C15.5916 15.9469 15.5543 16.0338 15.5707 16.116C16.6709 21.7572 17.909 22.6712 19.2854 28.2498C19.3016 28.315 19.3177 28.354 19.3337 28.3938V28.5016C19.3469 28.5048 19.3601 28.4935 19.3737 28.4773C19.3873 28.4934 19.4005 28.5039 19.4138 28.5016V28.3938C19.4298 28.354 19.4458 28.315 19.4621 28.2498C20.8385 22.6712 22.0766 21.7572 23.1767 16.116C23.1932 16.0338 23.1559 15.9469 23.0829 15.9023C22.2637 15.4187 22.4635 14.6157 22.5647 13.8479C22.5741 13.768 22.5269 13.6904 22.4516 13.6622L21.9739 13.4769C21.9096 13.4534 21.8556 13.4144 21.8116 13.3595C20.3733 11.5939 19.6174 9.41743 20.0741 7.15641C20.377 5.65221 20.6753 5.55581 20.9688 4.05005C21.0583 3.58672 21.0668 3.12007 20.9945 2.65048C20.4561 -0.883412 18.2914 -0.883574 17.7529 2.65048Z"
            fill="#056CF2" />
    </g>
    <defs>
        <clipPath id="clip0_836_32695">
            <rect width="42" height="29" fill="white" transform="translate(-2)" />
        </clipPath>
    </defs>
</svg>
    