<svg width="29" height="35" viewBox="0 0 29 35" fill="none" xmlns="http://www.w3.org/2000/svg">
    <path
        d="M14.1466 0V0.117871C12.3592 6.39646 9.41074 12.0673 5.29916 17.1297C5.21653 17.23 5.13626 17.3097 5.05804 17.3692C5.02003 17.3974 4.96535 17.3772 4.95378 17.3314C4.71029 16.2528 4.68615 15.1668 4.88116 14.0739C4.88936 14.0227 4.91259 13.9764 4.94894 13.9383C5.61 13.2376 6.59327 13.0561 7.49892 12.8809C7.58927 12.8633 7.58883 12.8494 7.49733 12.8396C6.78669 12.7625 6.08381 12.8079 5.3886 12.9765C5.24647 13.0106 5.19836 12.9585 5.24464 12.8196C6.09575 10.2646 8.10549 7.92945 10.7481 7.15931C10.7657 7.15534 10.7706 7.14264 10.7629 7.1228C10.7563 7.10798 10.7429 7.09991 10.728 7.1015C4.28936 8.05177 -0.321271 13.0444 0.0175201 19.7161C0.0307486 19.9629 0.0868518 19.9733 0.186013 19.7475C1.04208 17.8095 2.26439 16.1386 3.85313 14.735C3.93135 14.6655 3.96179 14.6827 3.94415 14.7863C3.73482 15.9663 3.7974 17.1301 4.13233 18.2782C4.1472 18.3344 4.13419 18.3956 4.09457 18.437L1.43711 21.2978C1.41892 21.3176 1.41892 21.3474 1.43711 21.3655L14.0798 34.9617C14.0984 34.9815 14.122 34.9911 14.1466 34.996V34.9999C14.1531 35.0004 14.1595 34.9986 14.166 34.9973C14.1725 34.9976 14.1788 34.9999 14.1854 34.9999V34.996C14.2099 34.9907 14.2336 34.9815 14.2522 34.9617L26.8949 21.3655C26.913 21.3474 26.913 21.3175 26.8949 21.2978L24.2374 18.437C24.1977 18.3957 24.1848 18.3343 24.1996 18.2782C24.5346 17.1301 24.5971 15.9663 24.3878 14.7863C24.3702 14.6827 24.4006 14.6655 24.4788 14.735C26.0676 16.1386 27.2899 17.8095 28.146 19.7475C28.2451 19.9733 28.3012 19.9629 28.3144 19.7161C28.6532 13.0444 24.0426 8.05177 17.6039 7.1015C17.5891 7.10018 17.5757 7.10811 17.5691 7.1228C17.5614 7.14264 17.5663 7.15481 17.5839 7.15931C20.2265 7.92945 22.2362 10.2646 23.0873 12.8196C23.1336 12.9584 23.0855 13.0106 22.9434 12.9765C22.2482 12.8079 21.5453 12.7625 20.8347 12.8396C20.7431 12.8502 20.7427 12.8633 20.8331 12.8809C21.7387 13.0561 22.722 13.2376 23.383 13.9383C23.4194 13.9763 23.4426 14.0226 23.4508 14.0739C23.6458 15.1668 23.6217 16.2528 23.3782 17.3314C23.3667 17.3777 23.3119 17.3973 23.2739 17.3692C23.1957 17.3097 23.1155 17.23 23.0328 17.1297C18.9212 12.0673 15.9728 6.39646 14.1854 0.117871V0C14.1809 0.00661425 14.1764 0.0157457 14.1722 0.03162C14.1702 0.0382342 14.1679 0.0453804 14.1661 0.0522592C14.1641 0.045645 14.1618 0.0384988 14.16 0.03162C14.1556 0.015878 14.1511 0.00634968 14.1466 0ZM14.166 7.46624L16.0849 10.8713C16.1146 10.9225 16.1214 10.9836 16.1049 11.0398L15.2092 14.0442C15.1977 14.0839 15.2225 14.1235 15.2621 14.1317C20.1093 15.0918 22.7781 20.6035 19.8843 24.8293C18.4486 26.9256 16.2965 27.9146 14.166 27.9331C12.0354 27.9146 9.88332 26.9256 8.44757 24.8293C5.5538 20.6035 8.2226 15.0918 13.0698 14.1317C13.1095 14.1237 13.1343 14.0839 13.1227 14.0442L12.227 11.0398C12.2105 10.9835 12.2172 10.9226 12.247 10.8713L14.166 7.46624ZM13.4103 16.1794C10.8256 16.7099 9.10354 19.0781 9.4853 21.7719C9.82627 24.1759 11.9166 25.8006 14.1466 25.8441C14.1531 25.8441 14.1595 25.8449 14.166 25.8447C14.1724 25.8448 14.1789 25.8452 14.1853 25.8454C16.4153 25.8018 18.5056 24.1759 18.8466 21.7719C19.2284 19.0781 17.5063 16.7099 14.9216 16.1794C14.829 16.1613 14.7383 16.2224 14.7234 16.3166L14.166 19.8162L13.6085 16.3166C13.5936 16.2224 13.5029 16.1612 13.4103 16.1794Z"
        fill="#056CF2" />
</svg>
    