<svg width="27" height="35" viewBox="0 0 27 35" fill="none" xmlns="http://www.w3.org/2000/svg">
    <g clip-path="url(#clip0_836_32678)">
        <path
            d="M7.15649 8.27893C7.143 8.28157 7.13319 8.30066 7.12677 8.33383C7.01118 8.93888 7.05636 9.5184 7.26185 10.0729C7.60862 11.0044 8.77182 11.3653 9.01263 12.3048C9.34977 13.6312 7.60612 14.6109 6.5793 13.9068C6.03217 13.5318 5.80122 12.6719 5.55848 12.0535C5.50197 11.9086 5.42983 11.9002 5.3425 12.0279C1.92489 17.0264 2.58791 24.4305 8.3963 27.191C8.50996 27.2449 8.64462 27.4085 8.67737 27.5202C8.71976 27.6638 8.62357 27.8093 8.47908 27.8233C6.2116 28.0427 4.3177 25.9804 3.50857 23.9797C3.19647 23.2058 3.02735 22.6671 2.28757 22.2582C1.3757 21.7542 0.62869 21.0507 0.0468873 20.1478C0.0109319 20.092 -0.00415955 20.0977 0.000976931 20.1642C0.157666 22.2333 0.783782 24.0986 1.87932 25.7608C3.38969 28.0547 5.45082 29.0962 7.95719 29.8362C8.03618 29.8602 8.07464 29.9497 8.03997 30.0275C7.58146 31.0188 7.93599 31.5874 8.43881 32.4332C8.61862 32.7337 8.59465 33.015 8.36732 33.277L7.17116 34.6631C7.15767 34.679 7.1501 34.6992 7.1501 34.7212L7.14781 34.7707C7.14781 34.8066 7.17859 34.8342 7.21328 34.8283C8.92787 34.5072 10.7233 33.5381 10.3476 31.3759C10.3341 31.2941 10.3631 31.2122 10.4266 31.1624C10.8132 30.8525 11.2597 30.7302 11.7658 30.7954C12.0291 30.83 12.2177 30.9714 12.332 31.22L13.4853 33.7667V33.8307L13.5 33.7987L13.5143 33.8307V33.7667L14.6676 31.22C14.7819 30.9714 14.9706 30.83 15.2338 30.7954C15.7399 30.7302 16.1864 30.8525 16.573 31.1624C16.6366 31.2123 16.6655 31.2941 16.652 31.3759C16.2763 33.5381 18.0717 34.5072 19.7863 34.8283C19.821 34.8349 19.8518 34.8066 19.8518 34.7707L19.8499 34.7212C19.8499 34.6992 19.8423 34.679 19.8288 34.6631L18.6323 33.2766C18.405 33.0146 18.3814 32.7333 18.5612 32.4328C19.064 31.587 19.4185 31.0188 18.96 30.0275C18.9253 29.9497 18.9638 29.8598 19.0428 29.8358C21.5492 29.0958 23.6103 28.0547 25.1207 25.7608C26.2162 24.0986 26.8423 22.2329 26.999 20.1638C27.0042 20.0973 26.9887 20.0919 26.9527 20.1479C26.3709 21.0508 25.6243 21.7542 24.7124 22.2582C23.9727 22.6671 23.8032 23.2058 23.4911 23.9797C22.6819 25.9804 20.788 28.0427 18.5205 27.8233C18.3761 27.8094 18.2799 27.6639 18.3223 27.5203C18.355 27.4085 18.4897 27.2449 18.6033 27.191C24.4117 24.4304 25.0747 17.0264 21.6571 12.0279C21.5698 11.9002 21.4977 11.9086 21.4411 12.0535C21.1984 12.6719 20.9675 13.5318 20.4203 13.9068C19.3935 14.6109 17.6499 13.6313 17.987 12.3048C18.2278 11.3654 19.3914 11.0044 19.7382 10.0729C19.9436 9.51843 19.9885 8.93888 19.8729 8.33385C19.8665 8.30055 19.8566 8.28186 19.8431 8.27883C19.8296 8.2762 19.8125 8.28674 19.792 8.31346C19.187 9.08473 18.7064 9.5926 18.3493 9.83595C17.7541 10.2448 16.7598 10.2728 16.1395 10.8632C15.3869 11.58 14.934 12.4885 14.7812 13.5895C14.7561 13.769 14.8544 13.9449 15.0201 14.0068C19.95 15.8957 21.813 22.3059 18.0506 26.5126C17.2029 27.4601 15.7697 28.4399 14.6581 29.4193C14.6138 29.4591 14.5444 29.4427 14.5174 29.3888L13.5143 27.2941V27.2485C13.5094 27.2551 13.5047 27.2642 13.5 27.2712C13.4952 27.2646 13.4902 27.2558 13.4853 27.2485V27.2945L12.4822 29.3888C12.4552 29.4427 12.3858 29.4591 12.3415 29.4193C11.2299 28.4399 9.79668 27.4605 8.94902 26.513C5.18657 22.3063 7.04958 15.8957 11.9795 14.0068C12.1452 13.9449 12.2435 13.7694 12.2184 13.5899C12.0656 12.4889 11.6127 11.58 10.8601 10.8632C10.2398 10.2728 9.24555 10.2448 8.65026 9.83593C8.29322 9.59259 7.81257 9.0851 7.20765 8.31384C7.1871 8.28725 7.16998 8.27564 7.15649 8.27893Z"
            fill="#056CF2" />
        <path
            d="M13.4854 0V0.0292256L12.1297 2.4754C12.0392 2.64095 12.0162 2.83457 12.0624 3.01809L12.646 5.30179C12.6614 5.36366 12.6248 5.42764 12.5651 5.4436C12.2742 5.52337 11.446 3.15558 11.3362 2.84043C11.3144 2.7779 11.2886 2.77631 11.2591 2.83384C10.9264 3.4801 10.6438 4.14685 10.4113 4.83434C9.61183 7.20199 10.7293 8.42667 12.0933 10.2537C12.568 10.8898 13.032 11.6399 13.4854 12.502V12.5495C13.4898 12.543 13.494 12.539 13.4982 12.5316C13.4988 12.5303 13.4996 12.529 13.5001 12.529C13.5007 12.5298 13.5011 12.5316 13.5017 12.5316C13.506 12.5395 13.5102 12.5435 13.5145 12.5495V12.502C13.9679 11.6399 14.4319 10.8898 14.9067 10.2537C16.2706 8.42667 17.3881 7.20199 16.5886 4.83434C16.3561 4.14685 16.0735 3.4801 15.7408 2.83384C15.7113 2.77552 15.6855 2.77711 15.6637 2.84043C15.5539 3.15558 14.7257 5.52338 14.4348 5.4436C14.3751 5.42767 14.3385 5.36355 14.3539 5.30179L14.9375 3.01809C14.9837 2.83459 14.9607 2.64095 14.8702 2.4754L13.5145 0.0292256V0C13.5086 0.00263276 13.5051 0.00922785 13.5002 0.0143617C13.4953 0.0104126 13.4913 0.00250112 13.4854 0Z"
            fill="#056CF2" />
    </g>
    <defs>
        <clipPath id="clip0_836_32678">
            <rect width="27" height="35" fill="white" />
        </clipPath>
    </defs>
</svg>
    